<?xml version="1.0" encoding="UTF-8"?>
<svg width="90px" height="82px" viewBox="0 0 90 82" version="1.1" xmlns="http://www.w3.org/2000/svg" xmlns:xlink="http://www.w3.org/1999/xlink">
    <!-- Generator: Sketch 53 (72520) - https://sketchapp.com -->
    <title>hands</title>
    <desc>Created with Sketch.</desc>
    <g id="Generation-Global" stroke="none" stroke-width="1" fill="none" fill-rule="evenodd">
        <g id="Generation-GLOBAL-About-V1" transform="translate(-150.000000, -1177.000000)">
            <g id="Values" transform="translate(150.000000, 1067.000000)">
                <g id="Group-4" transform="translate(0.000000, 110.000000)">
                    <g id="hands">
                        <path d="M50.7973107,43.4545455 C51.1611297,43.5757576 51.6462215,43.6969697 52.1313134,43.6969697 C54.071681,43.6969697 55.6482296,42.1212121 55.6482296,40.1818182 L55.6482296,31.4545455 C57.7098702,33.2727273 60.7416945,33.3939394 62.924608,31.8181818 C64.0160647,31.0909091 64.3798837,29.5151515 63.5309729,28.3030303 L55.4056837,17.6363636 C56.7396864,17.6363636 57.7098702,16.5454545 57.7098702,15.2121212 L57.7098702,12.4242424 C57.7098702,11.0909091 56.6184134,10 55.2844107,10 L34.4254595,10 C33.0914568,10 32,11.0909091 32,12.4242424 L32,15.0909091 C32,16.4242424 33.0914568,17.5151515 34.4254595,17.5151515 L34.5467324,17.5151515 C34.4254595,17.8787879 34.3041865,18.2424242 34.3041865,18.6060606 L34.3041865,37.6363636 C34.3041865,39.5757576 35.8807351,41.1515152 37.8211027,41.1515152 C38.3061946,41.1515152 38.6700135,41.030303 39.1551054,40.9090909 C39.5189243,42.3636364 40.9742,43.5757576 42.5507486,43.5757576 C43.0358405,43.5757576 43.3996594,43.4545455 43.8847513,43.3333333 C44.2485702,44.7878788 45.7038459,46 47.2803945,46 C48.9782162,46 50.3122188,44.9090909 50.7973107,43.4545455 L50.7973107,43.4545455 Z" id="Path" fill="#00C96F" opacity="0.5"></path>
                        <path d="M42.5516047,60.1924618 C43.6546317,59.0964142 43.8997488,57.2696683 43.1643975,55.9300546 C42.9192804,55.5659232 42.6741633,55.200574 42.3064876,54.9570079 C43.4095146,53.8597425 43.6546317,52.0329965 42.9192804,50.6946006 C42.183929,49.3537691 40.5906678,48.6230707 38.8748481,48.9884199 C38.7522895,48.5025055 38.6297309,48.1359385 38.3846138,47.7705893 C37.4041454,46.0656264 35.1980914,45.4567111 33.4822716,46.4321934 L25.7610826,50.8151659 C25.8836412,49.9626844 25.8836412,49.1114208 25.7610826,48.2589394 C25.393407,46.4321934 24.1678214,44.9695788 22.4520017,44.2388804 C21.2264161,43.6299651 19.6331549,44.2388804 19.1429207,45.4567111 L13.8729028,57.8785836 C13.1375515,56.7837538 11.6668488,56.4184046 10.5638218,57.02732 L8.23520925,58.4874989 C7.0096237,59.2194151 6.64194803,60.6808119 7.37729936,61.7756416 L17.9173351,79.7995351 C18.5301279,80.8955826 20.1233891,81.3839327 21.2264161,80.6520165 L23.5550287,79.3136206 C24.7806142,78.5817044 25.1482899,77.1215255 24.4129385,76.0242601 L24.4129385,75.9036949 C24.7806142,75.780694 25.1482899,75.6601287 25.5159655,75.5371278 L42.183929,66.0380489 C43.8997488,65.0637843 44.5125416,62.872907 43.5320732,61.1667263 C43.286956,60.8013771 42.9192804,60.4372457 42.5516047,60.1924618 L42.5516047,60.1924618 Z" id="Path" fill="#0084FF" opacity="0.5"></path>
                        <path d="M82.7985826,53.38199 L80.4795591,52.0373594 C79.382872,51.4256075 77.7970064,51.7926586 77.1870581,52.893812 C76.3331305,51.915009 76.9430788,52.6491112 59.7413166,42.4940301 C58.0346812,41.5152271 55.8388673,42.0046286 54.8617301,43.8398842 C54.6189707,44.2069354 54.4957611,44.6963369 54.3749914,45.063388 C52.7891258,44.6963369 51.2020403,45.4304391 50.3493325,46.7762932 C50.1053532,47.1433444 49.9821437,47.6327459 49.8613739,47.999797 C48.3962781,47.6327459 46.6896427,48.2444977 45.8357151,49.7114787 C44.9817874,51.1809067 45.3465365,52.893812 46.3224538,53.9937419 C44.3718391,55.5855202 44.6158184,58.6442796 46.8116324,59.8677834 L54.4957611,64.2723969 C53.6418335,64.5170976 52.9111154,65.0052756 52.3011671,65.6170275 C50.9592809,66.8405312 50.3493325,68.6757869 50.4713222,70.5110425 C50.592092,71.8581201 51.8119886,72.95805 53.2758645,72.7145727 L66.5739576,71.0016675 C65.9640092,72.1028209 66.3299782,73.5698019 67.5498749,74.3051276 L69.8676784,75.6509817 C71.087575,76.385084 72.5502311,75.8956825 73.1601794,74.7933056 L83.6525102,56.6866736 C84.3832283,55.5855202 83.8964895,54.1173157 82.7985826,53.38199 L82.7985826,53.38199 Z" id="Path" fill="#D8D8D8" opacity="0.400000006"></path>
                        <g id="Group-3" transform="translate(25.000000, 0.000000)" fill="#222E4F">
                            <path d="M19.2871452,37.8744817 C19.2871452,38.5809103 18.7202097,39.1460531 18.0115403,39.1460531 C17.302871,39.1460531 16.7359355,38.5809103 16.7359355,37.8744817 L16.7359355,35.1900531 L16.7359355,23.4633389 C16.7359355,22.6156246 16.169,22.0504817 15.3185968,22.0504817 C14.4681935,22.0504817 13.9012581,22.6156246 13.9012581,23.4633389 L13.9012581,35.1900531 C13.9012581,35.8964817 13.3343226,36.4616246 12.6256532,36.4616246 C11.9169839,36.4616246 11.3500484,35.8964817 11.3500484,35.1900531 L11.3500484,32.5056246 L11.3500484,23.4633389 C11.3500484,22.6156246 10.641379,22.0504817 9.93270968,22.0504817 C9.08230645,22.0504817 8.51537097,22.6156246 8.51537097,23.4633389 L8.51537097,32.5056246 C8.51537097,33.2120531 7.94843548,33.777196 7.23976613,33.777196 C6.3893629,33.777196 5.96416129,33.2120531 5.96416129,32.5056246 L5.96416129,10.1824817 C5.96416129,9.47605314 6.53109677,8.91091029 7.23976613,8.91091029 L23.3974274,8.91091029 C23.822629,8.91091029 24.2478306,9.19348171 24.5312984,9.61733886 L34.7361371,23.0394817 C32.8935968,24.3110531 30.484121,23.887196 29.2085161,22.1917674 L27.6494435,19.931196 C27.2242419,19.3660531 26.6573065,19.2247674 26.090371,19.3660531 C25.5234355,19.5073389 25.0982339,20.0724817 25.0982339,20.7789103 L25.0982339,35.1900531 C25.0982339,35.8964817 24.5312984,36.4616246 23.822629,36.4616246 C21.4131532,36.4616246 22.9722258,33.4946246 22.5470242,23.3220531 C22.5470242,23.1807674 22.5470242,22.898196 22.4052903,22.7569103 C22.1218226,22.1917674 21.696621,21.909196 21.1296855,21.909196 C20.2792823,21.909196 19.7123468,22.4743389 19.7123468,23.3220531 L19.7123468,37.8744817 L19.2871452,37.8744817 Z M2.84601613,5.94391029 L27.0825081,5.94391029 L27.0825081,2.83562457 L2.84601613,2.83562457 L2.84601613,5.94391029 Z M21.9800887,39.0047674 C22.4052903,39.1460531 22.9722258,39.2873389 23.5391613,39.2873389 C25.8069032,39.2873389 27.6494435,37.4506246 27.6494435,35.1900531 L27.6494435,25.0174817 C30.0589194,27.1367674 33.6022661,27.2780531 36.1534758,25.4413389 C37.4290806,24.5936246 37.8542823,22.7569103 36.8621452,21.3440531 L27.3659758,8.91091029 C28.9250484,8.91091029 30.0589194,7.63933886 30.0589194,6.085196 L30.0589194,2.83562457 C30.0589194,1.28148171 28.7833145,0.00991028571 27.2242419,0.00991028571 L2.84601613,0.00991028571 C1.28694355,0.00991028571 0.0113387097,1.28148171 0.0113387097,2.83562457 L0.0113387097,5.94391029 C0.0113387097,7.49805314 1.28694355,8.76962457 2.84601613,8.76962457 L2.98775,8.76962457 C2.84601613,9.19348171 2.70428226,9.61733886 2.70428226,10.041196 L2.70428226,32.2230531 C2.70428226,34.4836246 4.54682258,36.3203389 6.81456452,36.3203389 C7.3815,36.3203389 7.80670161,36.1790531 8.3736371,36.0377674 C8.79883871,37.733196 10.4996452,39.1460531 12.3421855,39.1460531 C12.909121,39.1460531 13.3343226,39.0047674 13.9012581,38.8634817 C14.3264597,40.5589103 16.0272661,41.9717674 17.8698065,41.9717674 C19.8540806,41.9717674 21.4131532,40.700196 21.9800887,39.0047674 L21.9800887,39.0047674 Z" id="Fill-1"></path>
                        </g>
                        <g id="Group-6" transform="translate(0.000000, 39.000000)" fill="#222E4F">
                            <path d="M39.3276258,23.6004806 L20.0244,34.4212226 C19.3147226,34.8373516 18.6050452,34.5585452 18.1792387,34.0037065 C14.0631097,26.9295129 12.7856903,24.7115452 10.0889161,20.2728355 C9.80504516,19.8567065 9.80504516,19.4391903 10.0889161,18.8857387 L16.7598839,3.62767419 C17.8953677,4.18112581 18.7469806,5.15209355 19.0308516,6.26177097 C19.1727871,7.09541613 19.1727871,7.9262871 18.7469806,8.75993226 L17.6114968,11.1166097 C17.3276258,11.6714484 17.4695613,12.3649968 17.8953677,12.7811258 C18.3211742,13.1972548 19.0308516,13.1972548 19.5985935,12.9212226 L32.0889161,5.84564194 C32.7985935,5.4295129 33.508271,5.70831935 33.9340774,6.26177097 C34.3598839,6.95531935 34.0760129,7.64886774 33.508271,8.06638387 L23.2889161,13.8908032 C22.5792387,14.3083194 22.4373032,15.1391903 22.7211742,15.8327387 C23.1469806,16.5262871 23.9985935,16.6649968 24.708271,16.3889645 L37.340529,9.31338387 C38.0502065,8.89725484 38.7598839,9.17606129 39.1856903,9.7295129 C39.6114968,10.4230613 39.3276258,11.1166097 38.7598839,11.5341258 C35.7792387,13.1972548 29.2502065,16.9424161 26.1276258,18.6069323 C25.4179484,19.0230613 25.2760129,19.8567065 25.5598839,20.5502548 C25.8437548,21.1037065 26.8373032,21.5198355 27.5469806,21.1037065 C36.2050452,16.6649968 38.4760129,13.7520935 39.6114968,15.8327387 C40.6050452,17.4986419 37.7663355,18.1921903 36.7727871,18.8857387 C33.7921419,20.5502548 28.540529,23.461771 28.9663355,23.3244484 C28.2566581,23.7405774 28.1147226,24.5714484 28.3985935,25.2649968 C28.6824645,25.8212226 29.5340774,26.2359645 30.3856903,25.8212226 C36.7727871,22.7682226 38.9018194,19.8567065 40.0373032,21.9373516 C40.1792387,22.4908032 39.8953677,23.1843516 39.3276258,23.6004806 L39.3276258,23.6004806 Z M15.0566581,40.3857387 L2.85020645,19.7166097 L5.54698065,18.1921903 C7.10827097,20.6875774 14.0631097,32.4779 17.7534323,38.7198355 L15.0566581,40.3857387 Z M41.1727871,19.3004806 C42.4502065,18.0520935 42.7340774,15.9714484 41.8824645,14.4456419 C41.5985935,14.0309 41.3147226,13.614771 40.8889161,13.3373516 C42.1663355,12.0875774 42.4502065,10.0069323 41.5985935,8.4825129 C40.7469806,6.95531935 38.9018194,6.12306129 36.9147226,6.53919032 C36.7727871,5.98573871 36.6308516,5.56822258 36.3469806,5.15209355 C35.2114968,3.21015806 32.6566581,2.51660968 30.6695613,3.62767419 L21.7276258,8.61983548 C21.8695613,7.64886774 21.8695613,6.6792871 21.7276258,5.70831935 C21.3018194,3.62767419 19.8824645,1.96177097 17.8953677,1.1295129 C16.4760129,0.435964516 14.6308516,1.1295129 14.0631097,2.51660968 L7.95988387,16.6649968 C7.10827097,15.4179968 5.40504516,15.0018677 4.12762581,15.6954161 L1.43085161,17.3585452 C0.0114967742,18.1921903 -0.414309677,19.8567065 0.437303226,21.1037065 L12.6437548,41.6327387 C13.3534323,42.8811258 15.1985935,43.4373516 16.4760129,42.6037065 L19.1727871,41.0792871 C20.5921419,40.2456419 21.0179484,38.5825129 20.1663355,37.3327387 L20.1663355,37.1954161 C20.5921419,37.0553194 21.0179484,36.9179968 21.4437548,36.7779 L40.7469806,25.9585452 C42.7340774,24.8488677 43.4437548,22.3534806 42.308271,20.4101581 C42.0244,19.994029 41.5985935,19.5792871 41.1727871,19.3004806 L41.1727871,19.3004806 Z" id="Fill-4"></path>
                        </g>
                        <g id="Group-9" transform="translate(45.000000, 36.000000)" fill="#222E4F">
                            <path d="M30.1052812,37.0995576 L30.1052812,37.0995576 L27.4334062,35.5648303 C32.77575,26.3662242 34.603875,23.1601636 39.52575,14.9359212 L42.1990312,16.4692545 L30.1052812,37.0995576 Z M9.15215625,33.3359212 C9.01153125,32.0799818 9.43340625,30.9662242 10.4177812,30.1298606 C10.978875,29.5722848 11.8240312,29.154103 12.6677812,29.154103 L15.3396562,28.8753152 C15.90075,28.8753152 16.4646562,28.3177394 16.603875,27.7601636 C17.02575,25.9480424 15.197625,26.2268303 3.52715625,19.1177394 C2.541375,18.5601636 2.82403125,17.0268303 3.80840625,16.7466485 C4.08965625,16.6086485 4.51153125,16.7466485 4.79278125,16.8874364 L14.916375,22.7419818 C15.6195,23.0193758 16.4646562,22.8813758 16.7459062,22.1844061 C17.1677812,21.4874364 16.8865312,20.6510727 16.1834062,20.231497 L3.666375,13.1238 C2.96325,12.7056182 2.82403125,12.0086485 3.2445,11.3116788 C3.666375,10.6147091 4.3695,10.4739212 5.072625,10.893497 L7.46325,12.2874364 L17.5896562,18.1405879 C18.2927812,18.5601636 19.135125,18.1405879 19.5584062,17.5844061 C19.9802812,16.8874364 19.6990312,16.0496788 18.9959062,15.6328909 L8.8695,9.77695152 C8.30840625,9.36016364 8.02715625,8.66319394 8.44903125,7.96622424 C8.8695,7.26925455 9.572625,7.12986061 10.27575,7.54804242 L12.6677812,8.94198182 L20.4021562,13.4025879 C21.1052812,13.8207697 21.947625,13.5419818 22.3709062,12.8450121 C22.7927812,12.1480424 22.5115312,11.3116788 21.8084062,10.893497 L14.0740312,6.43289091 C13.510125,6.01470909 13.2302812,5.31773939 13.6521562,4.6207697 C14.0740312,3.9238 14.7771562,3.78440606 15.4802812,4.20258788 C34.4646562,15.2147091 36.010125,15.2147091 35.0271562,16.8874364 C26.5896562,30.9662242 27.2927812,31.2450121 25.8865312,31.3830121 L9.15215625,33.3359212 Z M43.6052812,13.9587697 L40.932,12.4268303 C39.6677812,11.7298606 37.8396562,12.1480424 37.1365312,13.4025879 C36.1521562,12.2874364 36.8552812,13.1238 17.02575,1.55410303 C15.0584062,0.438951515 12.5271562,0.996527273 11.40075,3.08743636 C11.1209062,3.50561818 10.978875,4.06319394 10.8396562,4.48137576 C9.01153125,4.06319394 7.182,4.89955758 6.19903125,6.43289091 C5.91778125,6.85107273 5.77575,7.40864848 5.63653125,7.8268303 C3.947625,7.40864848 1.98028125,8.10561818 0.99590625,9.77695152 C0.01153125,11.4510727 0.432,13.4025879 1.557,14.6557394 C-0.69159375,16.4692545 -0.41034375,19.954103 2.12090625,21.3480424 L10.978875,26.3662242 C9.9945,26.6450121 9.15215625,27.2011939 8.44903125,27.8981636 C6.90215625,29.292103 6.19903125,31.3830121 6.33965625,33.4739212 C6.478875,35.0086485 7.885125,36.2618 9.572625,35.9844061 L24.9021562,34.0328909 C24.1990312,35.2874364 24.6209062,36.9587697 26.0271562,37.7965273 L28.6990312,39.3298606 C30.1052812,40.1662242 31.791375,39.6086485 32.4945,38.3527091 L44.5896562,17.7238 C45.432,16.4692545 44.8709062,14.7965273 43.6052812,13.9587697 L43.6052812,13.9587697 Z" id="Fill-7"></path>
                        </g>
                    </g>
                </g>
            </g>
        </g>
    </g>
</svg>