<?xml version="1.0" encoding="UTF-8"?>
<svg width="74px" height="79px" viewBox="0 0 74 79" version="1.1" xmlns="http://www.w3.org/2000/svg" xmlns:xlink="http://www.w3.org/1999/xlink">
    <!-- Generator: Sketch 53 (72520) - https://sketchapp.com -->
    <title>plant@1.5x</title>
    <desc>Created with Sketch.</desc>
    <g id="Generation-Global" stroke="none" stroke-width="1" fill="none" fill-rule="evenodd">
        <g id="Generation-GLOBAL-About-V1" transform="translate(-153.000000, -1499.000000)">
            <g id="Values" transform="translate(150.000000, 1067.000000)">
                <g id="Empower-and-Support" transform="translate(0.000000, 432.000000)">
                    <g id="Text">
                        <g id="plant" transform="translate(3.000000, 0.000000)">
                            <path d="M21.6450617,22.2798397 C25.693335,25.8761891 30.9165326,28.1527529 36.5547827,28.3447594 C37.6243578,30.1435258 38.5044814,32.0603363 39.1801035,34.051405 C39.2456148,34.2451866 39.3077325,34.4401516 39.3694075,34.6352645 C39.3918348,34.7061205 39.4158851,34.7765327 39.4380173,34.8475367 C40.0451771,36.8171563 40.460082,38.8499399 40.666354,40.905356 C40.7253732,41.5414329 41.2417911,42 41.86164,42 C41.8765424,42 41.8955761,41.9963019 41.9202166,41.9943789 C41.9492835,41.9967457 41.9779078,42 42.0090404,42 L42.009188,42 C42.5402131,42 43.0420237,41.6301878 43.2041789,41.0976583 C43.9004577,38.2919673 45.0142972,35.5751791 46.5092531,33.0169664 C50.5349516,32.8711125 54.3483285,31.6637497 57.6715511,29.6719413 C64.741459,25.5403997 69.684168,17.9330674 69.9546234,9.39735857 L69.9988878,8.02165727 C70.0136426,7.68143007 69.8808494,7.35599536 69.6447727,7.11931556 C69.3939412,6.88263577 69.0693357,6.74950339 68.7447302,6.76429587 L67.3725342,6.80867333 C55.9679624,7.17182889 46.2236003,15.9388922 44.2510316,26.9800045 C44.036792,28.1228721 43.9063596,29.2907389 43.8681447,30.4766526 L43.8238803,31.8375614 C43.8238803,32.074537 43.8826044,32.2964244 43.9969541,32.4896142 C43.3502514,33.6429844 42.7783555,34.827271 42.2824468,36.0358172 C41.5703804,33.1409274 40.47705,30.3476621 39.0443594,27.7574976 C39.1470527,27.5705206 39.2004651,27.3595797 39.1908745,27.148343 L39.1466101,25.7874342 C39.1076574,24.5740065 38.9714707,23.3799569 38.7482306,22.212238 C36.7737439,11.1731966 27.0305621,2.40864806 15.6274658,2.04549251 L14.2552698,2.00111505 C13.9159095,1.98632256 13.591304,2.11945494 13.3552273,2.35613474 C13.1191506,2.59281453 12.9863574,2.91824924 13.0011122,3.25847645 L13.0453766,4.63417774 C13.2658132,11.5934512 16.592577,17.9352862 21.6450617,22.2798397" id="Path" fill="#00C96F" opacity="0.604561942"></path>
                            <path d="M69.9325507,47.0505806 C68.7531479,46.8790783 67.5144265,47.2164793 66.5629555,48.0764977 L52.756691,60.6110599 L37.0519335,60.6110599 C36.0733242,60.6110599 35.2723743,59.8147465 35.2723743,58.8414747 C35.2723743,58.7947281 35.2759335,58.7490138 35.2794926,58.7031521 C35.448699,57.8853088 36.1820257,57.2635945 37.0519335,57.2635945 L43.7402581,57.2635945 C46.4391078,57.2635945 48.6190677,55.0958525 48.6190677,52.4267281 C48.6190677,50.6220461 47.6152481,49.0478525 46.135693,48.2165899 C45.4060737,47.772424 44.5498092,47.516129 43.6364505,47.516129 L24.7433162,47.516129 C22.9019174,47.516129 21.1058974,47.8334747 19.4208032,48.4408848 C17.2298693,49.1895668 15.2154084,50.4181014 13.5172641,52.0728111 L0.363356313,64.8580645 C-0.111044489,65.3299539 -0.126022445,66.0967742 0.348526653,66.5686636 C0.823075752,67.040553 13.042715,79 13.3689675,79 C13.6655607,79 13.9771319,78.8967742 14.1995768,78.6460829 L18.9450677,74.1483871 C21.4363022,71.7889401 24.7136569,70.4912442 28.1541379,70.4912442 L48.9156609,70.4912442 C52.9346469,70.4912442 56.760699,69.0018433 59.6968232,66.2737327 L72.6727752,54.240553 C73.5032361,53.4589862 73.9777852,52.397235 73.9927631,51.2617512 C74.0074445,50.1262673 73.5773844,49.0497696 72.7617531,48.2534562 C71.9808232,47.4767558 70.9618774,47.0756498 69.9325507,47.0505806 Z" id="5" fill="#0084FF" opacity="0.5"></path>
                            <path d="M63.0774383,7.67841582 L63.1661146,7.67841582 L63.1661146,7.76717074 C62.9645641,14.1121122 59.8544007,19.8765965 55.1626708,23.7341813 C52.0618029,26.209556 48.3065599,27.8719357 44.2560734,28.3634901 C45.334944,26.8929689 46.5340663,25.5251077 47.8479808,24.2704089 C48.7186613,23.453124 49.6393606,22.6849501 50.6096359,21.9679583 C50.6857707,21.9108593 50.7518722,21.8460682 50.8100061,21.7766914 C50.8170884,21.7713661 50.8238756,21.7660409 50.8309579,21.7608635 C51.3622781,21.3614663 51.4801689,20.592257 51.0817894,20.0597275 C50.6834099,19.5271979 49.9161605,19.408858 49.3849879,19.8082552 C46.7323707,21.7601239 44.4062772,24.0744085 42.444332,26.7076191 C42.6296523,25.0916878 42.999555,23.5225008 43.5314654,22.0219509 C46.4896543,13.9578266 54.217331,7.96124817 63.0774383,7.67841582 M32.5642258,21.907457 C30.6264784,19.3073816 28.3170578,17.0031559 25.6592765,15.0302819 C25.1133491,14.6308847 24.3608545,14.7492246 23.962475,15.2817542 C23.6222294,15.7493447 23.6598541,16.3673748 24.0089526,16.7867418 C24.0890711,16.9716479 24.2162575,17.1379154 24.3903641,17.2639474 C26.8421685,19.0817962 28.9749742,21.2099913 30.751304,23.6121432 C25.6843596,22.9905629 21.0846996,20.5422584 17.6478651,16.9673581 C14.206309,13.2531125 12.0166973,8.36715402 11.8487878,3.07795235 L11.8487878,2.98919743 L11.9373165,2.98919743 C21.4172727,3.3042774 29.5993971,10.1503883 32.0315776,19.0600512 C32.2723759,19.9891673 32.4509089,20.9400284 32.5642258,21.907457 M17.6450617,20.2798397 C21.693335,23.8761891 26.9165326,26.1527529 32.5547827,26.3447594 C33.6243578,28.1435258 34.5044814,30.0603363 35.1801035,32.051405 C35.2456148,32.2451866 35.3077325,32.4401516 35.3694075,32.6352645 C35.3918348,32.7061205 35.4158851,32.7765327 35.4380173,32.8475367 C36.0451771,34.8171563 36.460082,36.8499399 36.666354,38.905356 C36.7253732,39.5414329 37.2417911,40 37.86164,40 C37.8765424,40 37.8955761,39.9963019 37.9202166,39.9943789 C37.9492835,39.9967457 37.9779078,40 38.0090404,40 L38.009188,40 C38.5402131,40 39.0420237,39.6301878 39.2041789,39.0976583 C39.9004577,36.2919673 41.0142972,33.5751791 42.5092531,31.0169664 C46.5349516,30.8711125 50.3483285,29.6637497 53.6715511,27.6719413 C60.741459,23.5403997 65.684168,15.9330674 65.9546234,7.39735857 L65.9988878,6.02165727 C66.0136426,5.68143007 65.8808494,5.35599536 65.6447727,5.11931556 C65.3939412,4.88263577 65.0693357,4.74950339 64.7447302,4.76429587 L63.3725342,4.80867333 C51.9679624,5.17182889 42.2236003,13.9388922 40.2510316,24.9800045 C40.036792,26.1228721 39.9063596,27.2907389 39.8681447,28.4766526 L39.8238803,29.8375614 C39.8238803,30.074537 39.8826044,30.2964244 39.9969541,30.4896142 C39.3502514,31.6429844 38.7783555,32.827271 38.2824468,34.0358172 C37.5703804,31.1409274 36.47705,28.3476621 35.0443594,25.7574976 C35.1470527,25.5705206 35.2004651,25.3595797 35.1908745,25.148343 L35.1466101,23.7874342 C35.1076574,22.5740065 34.9714707,21.3799569 34.7482306,20.212238 C32.7737439,9.17319664 23.0305621,0.408648065 11.6274658,0.0454925082 L10.2552698,0.00111504707 C9.91590954,-0.01367744 9.59130403,0.119454943 9.3552273,0.356134736 C9.11915057,0.592814529 8.98635741,0.918249243 9.00111221,1.25847645 L9.04537659,2.63417774 C9.26581324,9.59345119 12.592577,15.9352862 17.6450617,20.2798397" id="Fill-1" fill="#000000"></path>
                            <g id="Group-5" transform="translate(0.000000, 43.000000)" fill="#000000">
                                <path d="M72.7617531,1.25345622 C71.9808232,0.47675576 70.9618774,0.0756497696 69.9325507,0.0505806452 C68.7531479,-0.120921659 67.5144265,0.216479263 66.5629555,1.0764977 L52.756691,13.6110599 L37.0519335,13.6110599 C36.0733242,13.6110599 35.2723743,12.8147465 35.2723743,11.8414747 C35.2723743,11.7947281 35.2759335,11.7490138 35.2794926,11.7031521 C35.448699,10.8853088 36.1820257,10.2635945 37.0519335,10.2635945 L43.7402581,10.2635945 C46.4391078,10.2635945 48.6190677,8.09585253 48.6190677,5.42672811 C48.6190677,3.62204608 47.6152481,2.04785253 46.135693,1.21658986 C45.4060737,0.772423963 44.5498092,0.516129032 43.6364505,0.516129032 L24.7433162,0.516129032 C22.9019174,0.516129032 21.1058974,0.833474654 19.4208032,1.44088479 C17.2298693,2.18956682 15.2154084,3.41810138 13.5172641,5.07281106 L0.363356313,17.8580645 C-0.111044489,18.3299539 -0.126022445,19.0967742 0.348526653,19.5686636 C0.823075752,20.040553 1.59436633,20.0552995 2.06876713,19.5834101 L2.18147255,19.4739908 C2.32873106,19.4170691 2.46738838,19.3308018 2.58780521,19.2147465 L15.5342461,6.62119816 C16.4398934,5.74200922 17.4537972,5.00866359 18.5433323,4.42971429 C20.38918,3.50156682 22.4413082,3.00829493 24.5653603,3.00829493 L43.7402581,3.00829493 C44.4667631,3.00829493 45.1185267,3.32652535 45.5669756,3.8280553 C45.8798814,4.23152074 46.0683663,4.73423041 46.0683663,5.27926267 C46.0683663,6.59170507 44.9858012,7.66820276 43.6661098,7.66820276 L37.0815928,7.66820276 C35.2054926,7.66820276 33.6222782,8.90012903 33.0906349,10.5846267 C32.9103062,11.052977 32.8107992,11.5607005 32.8107992,12.0921659 C32.8107992,14.4221198 34.7088473,16.3096774 37.0519335,16.3096774 L53.453685,16.3096774 C53.7502782,16.3096774 54.0468713,16.2064516 54.2693162,16 L68.6391078,2.94930876 C69.0365427,2.5877235 69.5496489,2.44261751 70.0409555,2.50440553 C70.2315166,2.58713364 70.4106589,2.70525346 70.5669635,2.86082949 C70.893216,3.18525346 71.0713202,3.62764977 71.0713202,4.09953917 C71.0563423,4.57142857 70.8635567,4.99907834 70.5224745,5.3235023 L57.7393082,17.1797235 C55.2924144,19.4506912 52.1040377,20.7041475 48.752683,20.7041475 L28.3024345,20.7041475 C24.2984265,20.7041475 20.487204,22.2082949 17.5805908,24.9658986 L12.9092481,29.3898618 C12.7699976,29.5240553 12.6703423,29.6837604 12.6087992,29.8542304 L12.5385066,29.9207373 C12.0492762,30.3778802 12.0342982,31.1447005 12.4941659,31.6313364 C12.7312922,31.8672811 13.042715,32 13.3689675,32 C13.6655607,32 13.9771319,31.8967742 14.1995768,31.6460829 L18.9450677,27.1483871 C21.4363022,24.7889401 24.7136569,23.4912442 28.1541379,23.4912442 L48.9156609,23.4912442 C52.9346469,23.4912442 56.760699,22.0018433 59.6968232,19.2737327 L72.6727752,7.240553 C73.5032361,6.45898618 73.9777852,5.39723502 73.9927631,4.26175115 C74.0074445,3.12626728 73.5773844,2.04976959 72.7617531,1.25345622" id="Fill-3"></path>
                            </g>
                        </g>
                    </g>
                </g>
            </g>
        </g>
    </g>
</svg>