<?xml version="1.0" encoding="UTF-8"?>
<svg width="89px" height="89px" viewBox="0 0 89 89" version="1.1" xmlns="http://www.w3.org/2000/svg" xmlns:xlink="http://www.w3.org/1999/xlink">
    <!-- Generator: Sketch 53 (72520) - https://sketchapp.com -->
    <title>puzzle</title>
    <desc>Created with Sketch.</desc>
    <g id="Generation-Global" stroke="none" stroke-width="1" fill="none" fill-rule="evenodd">
        <g id="Generation-GLOBAL-About-V1" transform="translate(-541.000000, -1178.000000)">
            <g id="Values" transform="translate(150.000000, 1067.000000)">
                <g id="Solve-Problems" transform="translate(390.000000, 111.000000)">
                    <g id="puzzle" transform="translate(1.000000, 0.000000)">
                        <path d="M44.1076875,33.8673706 L44.1076875,39.2585471 L37.5076875,39.2585471 C36.6826875,39.2585471 36.1326875,39.8114882 36.1326875,40.6409 C36.1326875,42.5761941 34.4826875,44.2350176 32.5576875,44.2350176 C30.6326875,44.2350176 28.9826875,42.5761941 28.9826875,40.6409 C28.9826875,39.8114882 28.4326875,39.2585471 27.6076875,39.2585471 L21.0076875,39.2585471 L21.0076875,26.2644294 C26.0951875,28.6144294 30.4951875,21.7026647 25.9576875,18.1085471 L23.6201875,16.1732529 L44.1076875,16.1732529 L44.1076875,21.5644294 C41.3576875,22.2556059 39.1576875,24.7438412 39.1576875,27.7850176 C39.1576875,30.8261941 41.2201875,33.3144294 44.1076875,33.8673706" id="Path" fill="#00C96F" opacity="0.5"></path>
                        <path d="M50.2800412,55.1320765 L50.2800412,49.7409 L56.9167176,49.7409 C57.7447471,49.7409 58.2990706,49.1879588 58.2990706,48.3585471 C58.2990706,46.4232529 59.9565118,44.7644294 61.8918059,44.7644294 C63.8284824,44.7644294 65.4859235,46.4232529 65.4859235,48.3585471 C65.4859235,49.1879588 66.0388647,49.7409 66.8682765,49.7409 L73.5049529,49.7409 L73.5049529,62.7350176 C71.4314235,61.7673706 68.6667176,62.4585471 67.2843647,64.5320765 C64.3800412,69.2320765 70.3241588,72.1350176 70.8771,72.8261941 L50.2800412,72.8261941 L50.2800412,67.4350176 C53.0447471,66.7438412 55.2578941,64.2556059 55.2578941,61.2144294 C55.2578941,58.1732529 53.0447471,55.6850176 50.2800412,55.1320765" id="Path" fill="#00C96F" opacity="0.5"></path>
                        <path d="M74.6111111,39 C75.4458333,39 76,38.4444444 76,37.6111111 L76,15.3888889 C76,14.5555556 75.4458333,14 74.6111111,14 L52.3888889,14 C51.5569444,14 51,14.5555556 51,15.3888889 L51,37.6111111 C51,38.4444444 51.5569444,39 52.3888889,39 L74.6111111,39 Z" id="Path" fill="#918D9A" opacity="0.5"></path>
                        <path d="M19.3888889,51 C18.5555556,51 18,51.5555556 18,52.3888889 L18,74.6111111 C18,75.4444444 18.5555556,76 19.3888889,76 L41.6111111,76 C42.4430556,76 43,75.4444444 43,74.6111111 L43,52.3888889 C43,51.5555556 42.4430556,51 41.6111111,51 L19.3888889,51 Z" id="Path" fill="#0084FF" opacity="0.5"></path>
                        <path d="M41.1076875,33.8673706 L41.1076875,39.2585471 L34.5076875,39.2585471 C33.6826875,39.2585471 33.1326875,39.8114882 33.1326875,40.6409 C33.1326875,42.5761941 31.4826875,44.2350176 29.5576875,44.2350176 C27.6326875,44.2350176 25.9826875,42.5761941 25.9826875,40.6409 C25.9826875,39.8114882 25.4326875,39.2585471 24.6076875,39.2585471 L18.0076875,39.2585471 L18.0076875,26.2644294 C23.0951875,28.6144294 27.4951875,21.7026647 22.9576875,18.1085471 L20.6201875,16.1732529 L41.1076875,16.1732529 L41.1076875,21.5644294 C38.3576875,22.2556059 36.1576875,24.7438412 36.1576875,27.7850176 C36.1576875,30.8261941 38.2201875,33.3144294 41.1076875,33.8673706 M42.4826875,24.1909 C43.3076875,24.1909 43.8576875,23.6379588 43.8576875,22.8085471 L43.8576875,14.7909 C43.8576875,13.9614882 43.3076875,13.4085471 42.4826875,13.4085471 L34.7826875,13.4085471 C32.3076875,10.0909 31.6201875,7.04972353 27.9076875,5.80560588 L11.6826875,0.137958824 C10.8576875,-0.138511765 10.1701875,0.137958824 9.8951875,0.967370588 C9.6201875,1.65854706 10.0326875,2.48795882 10.7201875,2.62619412 C26.5326875,8.57031176 27.9076875,7.87913529 29.4201875,10.2291353 L31.4826875,13.2703118 L16.7701875,13.2703118 C16.2201875,13.2703118 15.6701875,13.6850176 15.3951875,14.2379588 C14.5701875,16.8644294 23.9201875,19.4909 21.8576875,22.8085471 C21.3076875,23.7761941 20.0701875,24.0526647 19.1076875,23.4997235 C18.9701875,23.3614882 17.1826875,22.5320765 17.3201875,22.5320765 C9.6201875,18.5232529 8.2451875,18.5232529 7.0076875,16.7261941 L2.4701875,9.53795882 C2.0576875,8.84678235 1.2326875,8.57031176 0.6826875,8.98501765 C-0.0048125,9.39972353 -0.1423125,10.3673706 0.1326875,10.9203118 C4.2576875,17.1409 4.6701875,19.2144294 7.5576875,20.7350176 L15.2576875,24.7438412 L15.2576875,40.5026647 C15.2576875,41.3320765 15.8076875,41.8850176 16.6326875,41.8850176 L23.3701875,41.8850176 C24.0576875,44.6497235 26.5326875,46.8614882 29.5576875,46.8614882 C32.5826875,46.8614882 35.0576875,44.7879588 35.7451875,41.8850176 L42.4826875,41.8850176 C43.3076875,41.8850176 43.8576875,41.3320765 43.8576875,40.5026647 L43.8576875,32.4850176 C43.8576875,31.6556059 43.3076875,31.1026647 42.4826875,31.1026647 C40.5576875,31.1026647 38.9076875,29.4438412 38.9076875,27.5085471 C38.9076875,25.8497235 40.5576875,24.1909 42.4826875,24.1909" id="Fill-1" fill="#222E4F"></path>
                        <path d="M47.2800412,55.1320765 L47.2800412,49.7409 L53.9167176,49.7409 C54.7447471,49.7409 55.2990706,49.1879588 55.2990706,48.3585471 C55.2990706,46.4232529 56.9565118,44.7644294 58.8918059,44.7644294 C60.8284824,44.7644294 62.4859235,46.4232529 62.4859235,48.3585471 C62.4859235,49.1879588 63.0388647,49.7409 63.8682765,49.7409 L70.5049529,49.7409 L70.5049529,62.7350176 C68.4314235,61.7673706 65.6667176,62.4585471 64.2843647,64.5320765 C61.3800412,69.2320765 67.3241588,72.1350176 67.8771,72.8261941 L47.2800412,72.8261941 L47.2800412,67.4350176 C50.0447471,66.7438412 52.2578941,64.2556059 52.2578941,61.2144294 C52.2578941,58.1732529 50.0447471,55.6850176 47.2800412,55.1320765 M45.8976882,64.8085471 C45.0682765,64.8085471 44.5153353,65.3614882 44.5153353,66.1909 L44.5153353,74.2085471 C44.5153353,75.0379588 45.0682765,75.5909 45.8976882,75.5909 L53.6402471,75.5909 C56.1271,78.9085471 56.8182765,81.9497235 60.5520118,83.1938412 C77.6918059,89.1379588 76.8623941,88.9997235 77.2771,88.9997235 C77.8314235,88.9997235 78.3829824,88.5850176 78.5226,88.0320765 C78.7990706,87.3409 78.3829824,86.5114882 77.6918059,86.2350176 L61.3800412,80.4291353 C59.0300412,79.5997235 58.6153353,77.6644294 56.9565118,75.4526647 C72.9931882,75.4526647 72.7153353,75.8673706 73.1300412,74.4850176 C73.4065118,73.5173706 72.7153353,73.1026647 72.5784824,72.9644294 C69.2594529,69.7850176 64.9755412,68.5409 66.6329824,65.9144294 C68.0153353,63.7026647 70.5049529,65.9144294 71.1961294,66.0526647 C78.9359235,70.3379588 80.3182765,70.3379588 81.5637765,72.1350176 L86.1255412,79.3232529 C87.0931882,80.8438412 89.4418059,79.4614882 88.4755412,77.8026647 C84.3284824,71.7203118 83.9123941,69.5085471 81.0094529,67.9879588 L73.1300412,64.1173706 L73.1300412,48.3585471 C73.1300412,47.5291353 72.5784824,46.9761941 71.7476882,46.9761941 L64.9755412,46.9761941 C64.2843647,44.2114882 61.7947471,41.9997235 58.7549529,41.9997235 C55.7137765,41.9997235 53.2255412,44.0732529 52.5343647,46.9761941 L45.7594529,46.9761941 C44.9300412,46.9761941 44.3771,47.5291353 44.3771,48.3585471 L44.3771,56.3761941 C44.3771,57.2056059 44.9300412,57.7585471 45.7594529,57.7585471 C47.6961294,57.7585471 49.3535706,59.4173706 49.3535706,61.3526647 C49.4931882,63.1497235 47.8329824,64.8085471 45.8976882,64.8085471" id="Fill-4" fill="#222E4F"></path>
                        <path d="M50.7777778,36.2222222 L70.2222222,36.2222222 L70.2222222,16.7777778 L50.7777778,16.7777778 L50.7777778,36.2222222 Z M71.6111111,39 C72.4458333,39 73,38.4444444 73,37.6111111 L73,15.3888889 C73,14.5555556 72.4458333,14 71.6111111,14 L49.3888889,14 C48.5569444,14 48,14.5555556 48,15.3888889 L48,37.6111111 C48,38.4444444 48.5569444,39 49.3888889,39 L71.6111111,39 Z" id="Fill-7" fill="#222E4F"></path>
                        <path d="M17.7777778,73.2222222 L37.2222222,73.2222222 L37.2222222,53.7777778 L17.7777778,53.7777778 L17.7777778,73.2222222 Z M16.3888889,51 C15.5555556,51 15,51.5555556 15,52.3888889 L15,74.6111111 C15,75.4444444 15.5555556,76 16.3888889,76 L38.6111111,76 C39.4430556,76 40,75.4444444 40,74.6111111 L40,52.3888889 C40,51.5555556 39.4430556,51 38.6111111,51 L16.3888889,51 Z" id="Fill-9" fill="#222E4F"></path>
                    </g>
                </g>
            </g>
        </g>
    </g>
</svg>