<?xml version="1.0" encoding="UTF-8"?>
<svg width="80px" height="78px" viewBox="0 0 80 78" version="1.1" xmlns="http://www.w3.org/2000/svg" xmlns:xlink="http://www.w3.org/1999/xlink">
    <!-- Generator: Sketch 58 (84663) - https://sketch.com -->
    <title>values-chart</title>
    <desc>Created with Sketch.</desc>
    <g id="Generation-Global-Final" stroke="none" stroke-width="1" fill="none" fill-rule="evenodd">
        <g id="Generation-GLOBAL-About-" transform="translate(-932.000000, -1181.000000)">
            <g id="Values" transform="translate(150.000000, 1067.000000)">
                <g id="Better-Our-Best" transform="translate(780.000000, 114.000000)">
                    <g id="values-chart" transform="translate(2.000000, 0.000000)">
                        <polygon id="Fill-1" fill="#222E4F" points="0 78 78.9512195 78 78.9512195 75.1463415 0 75.1463415"></polygon>
                        <polygon id="Path" fill="#00C96F" opacity="0.5" points="7.80487805 74.2439024 18.2682927 74.2439024 18.2682927 55.2195122 7.80487805 55.2195122"></polygon>
                        <polygon id="Path" fill="#00C96F" opacity="0.5" points="23.0243902 74.2439024 33.4878049 74.2439024 33.4878049 47.6097561 23.0243902 47.6097561"></polygon>
                        <polygon id="Path" fill="#00C96F" opacity="0.5" points="38.2439024 74.2439024 48.7073171 74.2439024 48.7073171 40 38.2439024 40"></polygon>
                        <polygon id="Path" fill="#00C96F" opacity="0.5" points="53.4634146 74.2439024 63.9268293 74.2439024 63.9268293 32.3902439 53.4634146 32.3902439"></polygon>
                        <polygon id="Path" fill="#00C96F" opacity="0.5" points="68.6829268 74.2439024 79.1463415 74.2439024 79.1463415 24.7804878 68.6829268 24.7804878"></polygon>
                        <path d="M6.42472538,70.7052531 L11.66442,70.7052531 L11.66442,56.7581615 L6.42472538,56.7581615 L6.42472538,70.7052531 Z M3.80487805,73.2439024 L14.2682927,73.2439024 L14.2682927,54.2195122 L3.80487805,54.2195122 L3.80487805,73.2439024 Z" id="Fill-2-Copy" fill="#222E4F"></path>
                        <path d="M21.6282629,70.7057032 L26.8679575,70.7057032 L26.8679575,49.1478006 L21.6282629,49.1478006 L21.6282629,70.7057032 Z M19.0243902,73.2439024 L29.4878049,73.2439024 L29.4878049,46.6097561 L19.0243902,46.6097561 L19.0243902,73.2439024 Z" id="Fill-3-Copy" fill="#222E4F"></path>
                        <path d="M36.8477751,70.7205046 L42.0874697,70.7205046 L42.0874697,41.5388788 L36.8477751,41.5388788 L36.8477751,70.7205046 Z M34.2439024,73.2439024 L44.7073171,73.2439024 L44.7073171,39 L34.2439024,39 L34.2439024,73.2439024 Z" id="Fill-4-Copy" fill="#222E4F"></path>
                        <path d="M52.0672873,70.7054409 L57.3069819,70.7054409 L57.3069819,33.9287054 L52.0672873,33.9287054 L52.0672873,70.7054409 Z M49.4634146,73.2439024 L59.9268293,73.2439024 L59.9268293,31.3902439 L49.4634146,31.3902439 L49.4634146,73.2439024 Z" id="Fill-5-Copy" fill="#222E4F"></path>
                        <path d="M67.3026144,26.3039734 L72.5263344,26.3039734 L72.5263344,70.7049353 L67.2866397,70.7049353 L67.2866397,26.3039734 L67.3026144,26.3039734 Z M64.6829268,73.2439024 L75.1463415,73.2439024 L75.1463415,23.7804878 L64.6829268,23.7804878 L64.6829268,73.2439024 Z" id="Fill-6-Copy" fill="#222E4F"></path>
                        <polygon id="Path" fill="#0084FF" opacity="0.5" points="63.178915 2 66.5240337 7.72179346 2.95121951 43.9598187 6.77865766 50.5121951 70.3516274 14.289551 73.6965906 20.0113445 79.0487805 4.95318372"></polygon>
                        <path d="M61.178915,0 L64.5240337,5.72179346 L0.951219512,41.9598187 L4.77865766,48.5121951 L68.3516274,12.289551 L71.6965906,18.0113445 L77.0487805,2.95318372 L61.178915,0 Z M4.43636645,42.8980698 L68.0247393,6.67542571 L66.173255,3.50705948 L73.6569857,4.90659171 L71.1364777,12.01269 L69.2849933,8.85955117 L5.71217916,45.0821953 L4.43636645,42.8980698 Z" id="Fill-7" fill="#222E4F"></path>
                    </g>
                </g>
            </g>
        </g>
    </g>
</svg>